<?xml version="1.0" encoding="UTF-8"?>
<!DOCTYPE svg PUBLIC "-//W3C//DTD SVG 1.1//EN" "http://www.w3.org/Graphics/SVG/1.1/DTD/svg11.dtd">
<svg xmlns="http://www.w3.org/2000/svg" version="1.1" width="128px" height="128px" style="shape-rendering:geometricPrecision; text-rendering:geometricPrecision; image-rendering:optimizeQuality; fill-rule:evenodd; clip-rule:evenodd" xmlns:xlink="http://www.w3.org/1999/xlink">
<g><path style="opacity:1" fill="#fe9810" d="M 19.5,5.5 C 19.5,7.5 19.5,9.5 19.5,11.5C 14.8333,11.5 10.1667,11.5 5.5,11.5C 5.5,9.5 5.5,7.5 5.5,5.5C 10.1667,5.5 14.8333,5.5 19.5,5.5 Z"/></g>
<g><path style="opacity:1" fill="#d80527" d="M 19.5,5.5 C 22.1667,5.5 24.8333,5.5 27.5,5.5C 27.5,7.5 27.5,9.5 27.5,11.5C 27.5,12.1667 27.5,12.8333 27.5,13.5C 27.6309,14.3764 27.2975,15.0431 26.5,15.5C 24.5,16.1667 22.5,16.8333 20.5,17.5C 19.5713,16.3112 19.238,14.9778 19.5,13.5C 19.5,12.8333 19.5,12.1667 19.5,11.5C 19.5,9.5 19.5,7.5 19.5,5.5 Z"/></g>
<g><path style="opacity:1" fill="#fe9810" d="M 27.5,5.5 C 32.1667,5.5 36.8333,5.5 41.5,5.5C 41.5,7.5 41.5,9.5 41.5,11.5C 36.8333,11.5 32.1667,11.5 27.5,11.5C 27.5,9.5 27.5,7.5 27.5,5.5 Z"/></g>
<g><path style="opacity:0.956" fill="#ffda45" d="M 59.5,7.5 C 69.33,5.82919 73.1634,9.82919 71,19.5C 69.2366,24.0412 66.7366,28.0412 63.5,31.5C 57.9017,25.9742 55.4017,19.3075 56,11.5C 56.6897,9.64977 57.8564,8.31643 59.5,7.5 Z"/></g>
<g><path style="opacity:1" fill="#cb7400" d="M 5.5,11.5 C 10.1667,11.5 14.8333,11.5 19.5,11.5C 19.5,12.1667 19.5,12.8333 19.5,13.5C 14.8333,13.5 10.1667,13.5 5.5,13.5C 5.5,12.8333 5.5,12.1667 5.5,11.5 Z"/></g>
<g><path style="opacity:1" fill="#cb7400" d="M 27.5,11.5 C 32.1667,11.5 36.8333,11.5 41.5,11.5C 41.5,12.1667 41.5,12.8333 41.5,13.5C 36.8333,13.5 32.1667,13.5 27.5,13.5C 27.5,12.8333 27.5,12.1667 27.5,11.5 Z"/></g>
<g><path style="opacity:1" fill="#fffcf4" d="M 61.5,11.5 C 67.4877,11.664 68.821,14.164 65.5,19C 59.4034,19.1475 58.0701,16.6475 61.5,11.5 Z"/></g>
<g><path style="opacity:1" fill="#fed943" d="M 5.5,13.5 C 10.1667,13.5 14.8333,13.5 19.5,13.5C 19.238,14.9778 19.5713,16.3112 20.5,17.5C 22.5,16.8333 24.5,16.1667 26.5,15.5C 27.2975,15.0431 27.6309,14.3764 27.5,13.5C 32.1667,13.5 36.8333,13.5 41.5,13.5C 41.5,22.8333 41.5,32.1667 41.5,41.5C 29.5,41.5 17.5,41.5 5.5,41.5C 5.5,32.1667 5.5,22.8333 5.5,13.5 Z"/></g>
<g><path style="opacity:1" fill="#fefffe" d="M 11.5,29.5 C 14.1667,29.5 16.8333,29.5 19.5,29.5C 19.5,30.8333 19.5,32.1667 19.5,33.5C 16.8333,33.5 14.1667,33.5 11.5,33.5C 11.5,32.1667 11.5,30.8333 11.5,29.5 Z"/></g>
<g><path style="opacity:1" fill="#1a6eb0" d="M 61.5,37.5 C 62.8333,37.5 64.1667,37.5 65.5,37.5C 65.5,38.8333 65.5,40.1667 65.5,41.5C 64.1667,41.5 62.8333,41.5 61.5,41.5C 61.5,40.1667 61.5,38.8333 61.5,37.5 Z"/></g>
<g><path style="opacity:1" fill="#1a6eb0" d="M 69.5,37.5 C 70.8333,37.5 72.1667,37.5 73.5,37.5C 73.5,38.8333 73.5,40.1667 73.5,41.5C 72.1667,41.5 70.8333,41.5 69.5,41.5C 69.5,40.1667 69.5,38.8333 69.5,37.5 Z"/></g>
<g><path style="opacity:0.913" fill="#1a6eb0" d="M 77.5,37.5 C 93.1517,34.664 100.318,40.9974 99,56.5C 97.5259,60.6408 94.6926,63.4741 90.5,65C 73.1284,65.0875 55.7951,65.7542 38.5,67C 26.391,73.0555 23.2243,82.2222 29,94.5C 33.663,100.581 39.8296,103.581 47.5,103.5C 47.5,104.833 47.5,106.167 47.5,107.5C 34.9843,108.472 26.4843,103.139 22,91.5C 18.9161,77.1622 24.0828,67.3289 37.5,62C 53.5,61.6667 69.5,61.3333 85.5,61C 94.244,59.0105 96.744,53.8438 93,45.5C 88.4,42.2245 83.2334,40.8911 77.5,41.5C 77.5,40.1667 77.5,38.8333 77.5,37.5 Z"/></g>
<g><path style="opacity:0.944" fill="#ff5023" d="M 115.5,88.5 C 108.374,85.878 101.041,83.5447 93.5,81.5C 85.9593,83.5447 78.626,85.878 71.5,88.5C 69.5648,89.1495 67.5648,89.4828 65.5,89.5C 65.5,86.5 65.5,83.5 65.5,80.5C 74.8298,78.1675 84.1632,75.8342 93.5,73.5C 102.837,75.8342 112.17,78.1675 121.5,80.5C 121.5,83.5 121.5,86.5 121.5,89.5C 119.435,89.4828 117.435,89.1495 115.5,88.5 Z"/></g>
<g><path style="opacity:1" fill="#ff7855" d="M 115.5,88.5 C 115.5,99.5 115.5,110.5 115.5,121.5C 110.167,121.5 104.833,121.5 99.5,121.5C 99.5,114.833 99.5,108.167 99.5,101.5C 95.5,101.5 91.5,101.5 87.5,101.5C 87.5,108.167 87.5,114.833 87.5,121.5C 82.1667,121.5 76.8333,121.5 71.5,121.5C 71.5,110.5 71.5,99.5 71.5,88.5C 78.626,85.878 85.9593,83.5447 93.5,81.5C 101.041,83.5447 108.374,85.878 115.5,88.5 Z"/></g>
<g><path style="opacity:1" fill="#cc2a00" d="M 99.5,121.5 C 95.5,121.5 91.5,121.5 87.5,121.5C 87.5,114.833 87.5,108.167 87.5,101.5C 91.5,101.5 95.5,101.5 99.5,101.5C 99.5,108.167 99.5,114.833 99.5,121.5 Z"/></g>
<g><path style="opacity:1" fill="#1a6eb0" d="M 51.5,103.5 C 52.8333,103.5 54.1667,103.5 55.5,103.5C 55.5,104.833 55.5,106.167 55.5,107.5C 54.1667,107.5 52.8333,107.5 51.5,107.5C 51.5,106.167 51.5,104.833 51.5,103.5 Z"/></g>
<g><path style="opacity:1" fill="#1a6eb0" d="M 59.5,103.5 C 60.8333,103.5 62.1667,103.5 63.5,103.5C 63.5,104.833 63.5,106.167 63.5,107.5C 62.1667,107.5 60.8333,107.5 59.5,107.5C 59.5,106.167 59.5,104.833 59.5,103.5 Z"/></g>
</svg>
